<?xml version="1.0" encoding="UTF-8" standalone="no"?>
<!-- Created with Inkscape (http://www.inkscape.org/) -->

<svg
   xmlns:dc="http://purl.org/dc/elements/1.1/"
   xmlns:cc="http://creativecommons.org/ns#"
   xmlns:rdf="http://www.w3.org/1999/02/22-rdf-syntax-ns#"
   xmlns:svg="http://www.w3.org/2000/svg"
   xmlns="http://www.w3.org/2000/svg"
   xmlns:sodipodi="http://sodipodi.sourceforge.net/DTD/sodipodi-0.dtd"
   xmlns:inkscape="http://www.inkscape.org/namespaces/inkscape"
   width="744.09448819"
   height="1052.3622047"
   id="svg2"
   version="1.1"
   inkscape:version="0.48.0 r9654"
   sodipodi:docname="tic-tac-toe.svg"
   inkscape:export-filename="/Users/adavis/Projects/game_dev_ruby_book/images/tic-tac-toe.png"
   inkscape:export-xdpi="44.272423"
   inkscape:export-ydpi="44.272423">
  <defs
     id="defs4" />
  <sodipodi:namedview
     id="base"
     pagecolor="#ffffff"
     bordercolor="#666666"
     borderopacity="1.0"
     inkscape:pageopacity="0.0"
     inkscape:pageshadow="2"
     inkscape:zoom="0.35"
     inkscape:cx="375"
     inkscape:cy="520"
     inkscape:document-units="px"
     inkscape:current-layer="layer1"
     showgrid="false"
     inkscape:window-width="1436"
     inkscape:window-height="856"
     inkscape:window-x="4"
     inkscape:window-y="0"
     inkscape:window-maximized="0" />
  <metadata
     id="metadata7">
    <rdf:RDF>
      <cc:Work
         rdf:about="">
        <dc:format>image/svg+xml</dc:format>
        <dc:type
           rdf:resource="http://purl.org/dc/dcmitype/StillImage" />
        <dc:title></dc:title>
      </cc:Work>
    </rdf:RDF>
  </metadata>
  <g
     inkscape:label="Layer 1"
     inkscape:groupmode="layer"
     id="layer1">
    <path
       style="fill:#000000;fill-opacity:1;fill-rule:nonzero;stroke:none"
       id="path2989"
       d="m 101.47926,339.79552 c -11.146762,6.37757 -22.276048,12.78579 -33.44028,19.13272 -1.09911,0.62486 2.162537,-1.31047 3.243751,-1.9658 1.137491,-0.68944 2.258892,-1.40614 3.412363,-2.06849 17.890803,-10.27339 29.896946,-20.59549 47.889746,-25.36777 8.25023,-2.0165 16.72811,-3.02918 24.99715,-4.89573 7.43518,-1.57126 14.98502,-2.38485 22.56307,-2.80227 12.44876,-2.31602 25.29141,-2.04773 37.91104,-2.1987 23.76252,-0.27176 47.52654,-0.30102 71.28993,-0.46557 12.78707,-0.12825 25.57434,-0.23098 38.36173,-0.32275 10.57952,0.0433 21.15928,0.0938 31.73887,0.0969 18.54593,0.26816 37.09347,0.21214 55.64058,0.21301 12.90275,-0.0379 25.80463,-0.19798 38.70686,-0.30693 7.7722,-0.0531 15.54466,0.001 23.317,-0.003 15.49966,0.0763 30.99796,0.29587 46.49683,0.4636 21.83621,0.0677 43.6718,-0.15427 65.50759,-0.21213 17.15893,0.40142 34.35287,-0.61153 51.49201,0.34579 12.61323,0.87771 25.23556,1.62339 37.87302,2.03446 0,0 -34.12439,24.56475 -34.12439,24.56475 l 0,0 c -12.48795,-0.69304 -24.95287,-1.74073 -37.44552,-2.35341 -17.05032,-0.61729 -34.11941,-0.29516 -51.17769,-0.33774 -21.64113,-0.0578 -43.28206,-0.28105 -64.92363,-0.21213 -15.92427,0.16735 -31.848,0.38533 -47.77301,0.4636 -7.76937,-0.004 -15.53887,0.0498 -23.30809,-0.003 -12.62069,-0.10906 -25.24102,-0.27038 -37.86225,-0.30672 -18.74239,9.7e-4 -37.48514,-0.0516 -56.2264,0.21224 -10.6625,0.002 -21.32511,0.0508 -31.9876,0.08 -12.4773,-0.11161 -24.95446,-0.23719 -37.43181,-0.34213 -23.74222,-0.1047 -47.48837,-0.0833 -71.22433,0.54055 -13.00675,0.50434 -26.00563,1.08544 -38.87774,3.11369 -7.43978,0.56753 -14.83242,1.56896 -22.12563,3.17256 -8.28529,1.4568 -16.567852,2.96974 -24.682016,5.22716 -1.316559,0.48611 -2.655733,0.91488 -3.949677,1.45833 -1.259445,0.52896 -4.875769,2.45599 -3.7029,1.75572 57.783963,-34.50037 38.359983,-22.13335 25.779803,-14.8459 -13.03326,7.5499 -26.067632,15.09789 -39.101449,22.64684 0,0 33.143069,-26.51132 33.143069,-26.51132 z"
       inkscape:connector-curvature="0" />
    <path
       style="fill:#000000;fill-opacity:1;fill-rule:nonzero;stroke:none"
       id="path3048"
       d="m 59.256461,564.48425 c 16.513545,-12.32958 2.673856,-2.26622 45.605719,-25.99159 5.71451,-3.15801 11.28892,-5.90042 17.58965,-7.74707 9.52709,-1.66077 19.18173,-1.85685 28.73939,-3.30213 10.87438,-1.68352 21.84251,-2.56405 32.8231,-3.28548 18.6303,-0.98212 37.31345,-0.88816 55.96898,-1.03337 16.75825,-0.25227 33.51779,-0.0592 50.27703,-0.0561 15.90703,0.0205 31.81387,-0.0651 47.72085,-0.0811 15.65275,0.0555 31.30556,0.03 46.9583,0.0634 12.47589,0.0187 24.95124,-0.11159 37.42658,-0.20379 18.6042,0.21437 37.20794,0.4167 55.8136,0.4224 22.33616,0.049 44.67189,-0.10161 67.00791,-0.1467 12.28923,-0.0539 24.57772,-0.19959 36.86666,-0.29156 7.89886,0.0363 15.79781,-0.005 23.69665,-0.0285 6.18604,-0.0182 12.37211,-0.0231 18.55816,-0.0259 5.87078,-0.002 11.74157,-10e-4 17.61235,-10e-4 4.89733,1.5e-4 9.79465,2.4e-4 14.69199,3e-4 0,0 -35.26569,24.88673 -35.26569,24.88673 l 0,0 c -4.89762,6e-5 -9.79523,1.5e-4 -14.69286,3e-4 -5.86965,1.6e-4 -11.73931,5.8e-4 -17.60896,-10e-4 -6.16163,-0.003 -12.32326,-0.008 -18.48485,-0.0259 -7.87196,-0.0233 -15.74402,-0.0649 -23.616,-0.0285 -12.01349,-0.0919 -24.02652,-0.23869 -36.04033,-0.29156 -22.19743,-0.0451 -44.39457,-0.19629 -66.59215,-0.1467 -19.00467,0.006 -38.00749,0.21211 -57.01079,0.42247 -12.28299,-0.0926 -24.56598,-0.22345 -36.84953,-0.20345 -15.71154,0.0333 -31.42314,0.009 -47.13468,0.0601 -15.81479,-0.0214 -31.62942,-0.11699 -47.44426,-0.11612 -16.72319,-0.0158 -33.44592,0.12432 -50.16889,0.013 -18.70864,0.0702 -37.43334,0.12032 -56.10121,1.48436 -11.09979,0.90282 -22.1278,2.23329 -33.1398,3.85317 -9.41574,1.16519 -19.074082,1.07477 -28.188642,3.92555 -4.290988,1.66076 -8.302183,3.5659 -12.380424,5.67494 -1.564851,0.80925 -6.213062,3.31754 -4.688703,2.43839 30.512109,-17.5973 43.729429,-23.88521 28.399187,-16.47061 0,0 -40.348337,16.2332 -40.348337,16.2332 z"
       inkscape:connector-curvature="0" />
    <path
       style="fill:#000000;fill-opacity:1;fill-rule:nonzero;stroke:none"
       id="path3050"
       d="m 242.65021,171.56039 c 4.2772,5.98467 10.10716,10.50838 15.09902,15.78488 4.6649,4.72603 7.43055,10.70524 10.54873,16.44252 2.83517,5.65512 3.88112,11.85222 4.49404,18.07931 0.45622,8.54327 0.32314,17.11968 0.16813,25.67199 -0.59908,19.58804 -0.48511,39.18749 -0.2708,58.78057 -0.0789,19.9365 -0.24138,39.87294 -0.11378,59.81191 0.0633,13.29449 0.26596,26.58741 0.44389,39.88064 -0.0699,9.92256 -0.0913,19.84547 -0.0123,29.76968 0.0732,9.72532 -0.0653,19.45075 -0.0752,29.17608 0.0287,8.44278 0.12205,16.88513 0.17487,25.32776 -0.0402,8.85697 -0.15096,17.71247 -0.11969,26.56963 0.0473,7.4437 0.10738,14.88729 0.13865,22.33108 -0.10878,7.94872 -0.0917,15.89834 -0.0543,23.84751 0.0371,6.40002 0.0587,12.80011 0.0699,19.20023 0.37781,6.4506 -0.77481,12.79958 -1.62725,19.16241 -0.79846,5.96374 -1.03666,11.97759 -1.17095,17.9864 -0.15743,6.49966 -0.10918,13.00217 -0.0898,19.50311 0.0204,5.8833 0.0295,11.76663 0.0345,17.64997 0.004,5.71268 0.004,11.42538 0.004,17.13807 -3e-5,2.85512 -1e-4,5.71025 -1.7e-4,8.56537 0,0 -37.72514,19.22188 -37.72514,19.22188 l 0,0 c -1e-5,-2.85506 -3e-5,-5.71012 -6e-5,-8.56518 -6e-5,-5.71275 -2e-4,-11.4255 1.9e-4,-17.13825 6.2e-4,-5.8894 0.002,-11.77879 0.007,-17.66819 0.006,-6.52091 0.0205,-13.04182 0.0167,-19.56274 0.10159,-6.1552 0.28024,-12.31798 1.02549,-18.43526 0.78751,-6.20263 2.15833,-12.36029 1.8148,-18.64281 0.0111,-6.42386 0.0329,-12.84769 0.0699,-19.27145 0.0371,-7.93072 0.0551,-15.86192 -0.0543,-23.79218 0.0313,-7.49089 0.0914,-14.98158 0.13865,-22.47238 0.031,-8.81651 -0.0789,-17.63134 -0.11969,-26.44765 0.0529,-8.50203 0.14594,-17.00379 0.17487,-25.50596 -0.01,-9.69977 -0.14866,-19.39964 -0.0752,-29.09941 0.0782,-9.91996 0.0578,-19.83861 -0.0126,-29.7569 0.1772,-13.44401 0.37897,-26.88771 0.44349,-40.33294 0.12732,-19.90363 -0.0344,-39.80489 -0.0983,-59.70602 0.23012,-19.51612 0.37988,-39.03869 -0.18299,-58.55096 -0.14062,-8.36976 -0.0383,-16.74559 -0.46581,-25.10841 -0.41566,-5.68526 -1.10667,-11.39681 -3.69215,-16.56825 -2.8527,-5.44264 -5.39925,-11.08758 -9.87814,-15.46975 -5.11916,-5.16363 -10.38324,-10.16731 -15.19609,-15.64223 0,0 36.1685,-22.16408 36.1685,-22.16408 z"
       inkscape:connector-curvature="0" />
    <path
       style="fill:#000000;fill-opacity:1;fill-rule:nonzero;stroke:none"
       id="path3056"
       d="m 474.05205,162.75128 c 4.60445,2.24219 10.58119,2.87831 13.6535,8.62253 0.96677,1.80754 1.61063,3.88728 2.41594,5.83093 4.08598,10.4156 5.64456,21.93024 7.74675,33.19434 1.37107,6.85862 2.10837,13.87113 2.49476,20.93751 0.26352,6.10097 0.25045,12.21491 0.25067,18.32361 -0.008,6.01796 -0.0183,12.03591 -0.0239,18.05388 -0.005,6.02662 -0.005,12.05324 -0.006,18.07985 -1.8e-4,6.0286 -4e-5,12.05721 2e-5,18.0858 7e-5,6.0286 8e-5,12.05719 9e-5,18.08577 10e-6,6.02857 10e-6,12.05713 10e-6,18.08568 0.14954,6.18096 -0.93795,12.23575 -1.54532,18.32953 -0.66807,7.56955 -0.69075,15.2083 -0.73412,22.82033 -0.0184,6.38664 7.9e-4,12.77333 0.0104,19.15996 0.0231,6.44482 0.009,12.88907 -0.0397,19.33355 -0.12771,9.76072 0.11402,19.51972 -0.31072,29.26804 -0.68363,9.44891 -1.31435,18.89606 -1.68707,28.37662 -0.23242,7.39593 -0.23627,14.79971 -0.23572,22.2007 0.0424,6.97223 0.004,13.94229 -0.0795,20.91353 -0.0301,10.16938 -0.0267,20.33879 -0.0159,30.50816 -0.26853,7.20114 -0.90447,14.40934 -1.80568,21.51997 -1.23131,5.81054 -1.90551,11.75613 -2.28624,17.76076 -0.15772,7.62365 -0.54636,15.18016 -1.28645,22.74234 -0.30977,6.56297 -1.53844,12.90661 -2.43898,19.34092 -0.78713,6.01028 -0.95183,12.11482 -1.05602,18.20098 -0.0689,6.02712 -0.0502,12.05525 -0.0433,18.08285 0.002,6.15315 0.0298,12.30636 -0.008,18.45936 -0.002,1.17252 -0.005,2.34505 -0.008,3.51757 0,0 -29.73367,20.23893 -29.73367,20.23893 l 0,0 c -0.003,-1.16859 -0.006,-2.33717 -0.009,-3.50575 -0.0412,-6.14142 -0.0193,-12.28316 -0.0338,-18.42476 -0.008,-6.05558 -0.0255,-12.11139 0.0157,-18.16682 0.0704,-6.28561 0.17827,-12.58809 0.84649,-18.82141 0.77158,-6.46494 2.22771,-12.69712 2.56611,-19.24478 0.78911,-7.47139 1.47581,-14.86971 1.29016,-22.43763 0.29088,-6.19125 0.76644,-12.38196 2.016,-18.37987 1.58139,-6.64021 1.44716,-13.94618 2.42895,-20.77309 0.01,-10.15906 0.0121,-20.31823 -0.0256,-30.47726 -0.0909,-6.93512 -0.1452,-13.86952 -0.0996,-20.80591 0.026,-7.49131 0.0809,-14.98355 0.30203,-22.46993 0.30083,-9.54257 0.97439,-19.04711 1.77852,-28.53606 0.55006,-9.60339 0.2076,-19.25137 0.22758,-28.87777 -0.051,-6.42079 -0.068,-12.8414 -0.0573,-19.26259 -0.002,-6.41558 -0.006,-12.8313 0.0374,-19.24669 0.0678,-7.74413 0.1858,-15.48865 0.50034,-23.22302 0.49994,-5.96938 1.61769,-11.85038 1.72515,-17.84182 0,-6.02856 0,-12.05711 -1e-5,-18.08566 0,-6.02859 0,-12.05716 -6e-5,-18.08573 -6e-5,-6.0287 -1.7e-4,-12.05739 -1.4e-4,-18.08608 1.5e-4,-6.0279 2.1e-4,-12.05581 0.004,-18.0837 0.004,-6.0175 0.0118,-12.03499 0.0236,-18.05246 0.008,-6.02786 0.0342,-12.05847 -0.13646,-18.0832 -0.26746,-6.85477 -0.82398,-13.68227 -2.11035,-20.34749 -1.8598,-10.92788 -2.90576,-22.20733 -7.04249,-32.20424 -0.71517,-1.50442 -1.29552,-3.13969 -2.14552,-4.51326 -2.52394,-4.07861 -8.77777,-5.12896 -12.43681,-5.7295 0,0 27.10627,-26.30752 27.10627,-26.30752 z"
       inkscape:connector-curvature="0" />
  </g>
</svg>
